PathFileType	4	(X/Y/Z)	c:/Users/goper/Files/vsCode/490R/osim_files/C06/C06_SSWS_02.trc
DataRate	CameraRate	NumFrames	NumMarkers	Units                	OrigDataRate	OrigDataStartFrame	OrigNumFrames
250.00	250.00	4	36	mm	250.0	1832	2931
                Frame#	Time	LPSIS			LASIS			LTH1			LTH2			LTH3			LTH4			LLFE			LMFE			LSH1			LSH2			LSH3			LSH4			LLMAL			LMMAL			LCAL			LMTP5			LTOE			LMTP1			RPSIS			RASIS			RTH1			RTH2			RTH3			RTH4			RLFE			RMFE			RSH1			RSH2			RSH3			RSH4			RLMAL			RMMAL			RCAL			RMTP1			RTOE			RMTP5		
		X1	Y1	Z1	X2	Y2	Z2	X3	Y3	Z3	X4	Y4	Z4	X5	Y5	Z5	X6	Y6	Z6	X7	Y7	Z7	X8	Y8	Z8	X9	Y9	Z9	X10	Y10	Z10	X11	Y11	Z11	X12	Y12	Z12	X13	Y13	Z13	X14	Y14	Z14	X15	Y15	Z15	X16	Y16	Z16	X17	Y17	Z17	X18	Y18	Z18	X19	Y19	Z19	X20	Y20	Z20	X21	Y21	Z21	X22	Y22	Z22	X23	Y23	Z23	X24	Y24	Z24	X25	Y25	Z25	X26	Y26	Z26	X27	Y27	Z27	X28	Y28	Z28	X29	Y29	Z29	X30	Y30	Z30	X31	Y31	Z31	X32	Y32	Z32	X33	Y33	Z33	X34	Y34	Z34	X35	Y35	Z35	X36	Y36	Z36

1832	7.32400	-120.80326	992.67627	193.77284	-296.30688	969.08228	292.84854	-195.50429	776.30225	366.33701	-191.71011	713.63281	360.63583	-267.25424	768.24371	343.90070	-254.39635	707.13666	340.28983	-138.51907	468.33203	300.79602	-117.43313	458.75839	185.78746	-48.64841	373.07034	321.77548	-46.15720	329.55978	315.66916	-111.47022	363.44022	312.95370	-97.75337	321.70868	308.91125	-11.28083	97.90536	259.15298	-15.62891	118.63801	183.01251	62.75890	76.33386	219.09926	-113.60691	32.72543	281.74231	-163.91168	51.52291	211.08580	-130.23842	35.95535	167.95346	-116.90495	987.03174	122.73815	-296.54352	972.94666	56.68937	-275.85660	764.91931	-30.30808	-311.54044	713.42822	-27.24947	-340.76346	802.54956	-15.59694	-366.77142	745.47015	-15.00710	-441.76361	482.55841	20.58415	-461.46194	499.27374	129.62523	-407.94681	397.41879	5.90769	-421.81772	351.48816	3.94004	-467.83405	406.32968	8.82624	-473.49170	360.08163	7.27900	-511.65839	108.26810	42.71730	-521.08990	138.75363	118.99180	-458.41852	68.22635	95.77146	-665.97205	92.25780	115.13491	-676.84924	112.53403	63.74980	-633.07568	74.39032	5.49151
1833	7.32800	-125.80678	991.43829	193.16850	-301.24924	967.86414	292.49710	-199.57051	775.85516	366.17618	-195.42088	713.22632	360.46078	-271.88159	766.92926	343.75406	-258.08002	706.32135	340.36099	-140.58859	468.16373	300.70447	-119.79100	458.62756	185.69214	-50.03291	373.39465	321.60123	-47.38416	329.90378	315.48685	-112.99570	363.44531	312.93890	-100.62183	320.53085	306.91446	-11.52475	98.27978	259.02841	-16.02070	118.96649	182.89212	62.68220	76.56844	218.95143	-113.62629	32.73090	281.71466	-164.00963	51.52021	211.06030	-130.27563	35.94908	167.92432	-122.11638	985.51410	122.17903	-302.01859	971.79980	56.25916	-281.00464	763.67139	-30.68147	-316.42197	711.97565	-27.64923	-346.19971	801.05585	-16.43464	-371.73065	743.79572	-15.29730	-447.11676	481.20978	20.30765	-466.13330	497.88266	129.61435	-415.20877	395.86368	5.69843	-430.09531	350.20590	3.78502	-475.18146	406.01727	8.77102	-481.56409	359.84146	6.99472	-526.41010	108.99426	42.04621	-534.38007	139.50885	118.37405	-473.49924	67.48664	94.39846	-680.19171	96.24900	115.98153	-691.15491	116.97765	64.77672	-649.03192	77.78829	5.93056
1834	7.33200	-130.93311	990.13226	192.51721	-306.28232	966.70184	292.18506	-203.64304	775.41425	365.95074	-199.22562	712.90924	360.06433	-275.91669	765.91315	343.69473	-261.72644	705.45160	340.31509	-142.74323	467.96716	300.60538	-122.19997	458.51712	185.57330	-51.55694	373.77716	321.32700	-48.55929	330.31604	315.39987	-114.37314	363.41913	312.89020	-101.94370	320.60071	306.73383	-11.74186	98.67981	258.88147	-16.45018	119.32240	182.76472	62.62125	76.81255	218.81332	-113.63073	32.73681	281.67813	-164.05081	51.52763	211.03886	-130.33083	35.91358	167.89651	-127.40238	983.95581	121.58988	-307.35971	970.58966	55.73980	-286.05157	762.19537	-31.01607	-321.29907	710.42725	-28.01803	-351.18350	799.34875	-16.28512	-376.71161	742.06342	-15.61254	-452.88428	480.25787	20.02499	-470.88504	496.58701	129.56757	-422.35626	394.37387	5.40616	-438.14911	349.01642	3.64891	-482.00745	405.57968	8.11200	-489.53970	359.59592	6.65511	-540.78076	109.94727	41.35769	-547.13837	140.43703	117.84297	-487.70468	67.25484	93.27895	-693.88129	100.39763	116.87614	-704.99603	121.48484	65.77395	-664.33167	81.41947	6.45073
1835	7.33600	-135.98257	988.80945	191.84132	-311.21707	965.45831	291.88153	-207.54617	774.96625	365.75668	-202.81963	712.44751	359.85660	-279.46826	765.04919	343.15854	-265.40659	704.60876	340.39044	-144.97653	467.75269	300.48978	-124.73781	458.38333	185.44130	-53.04717	374.15842	321.06213	-49.88794	330.67218	315.02567	-115.93423	363.42496	312.90137	-102.21755	321.28995	307.57974	-11.90357	99.11295	258.74631	-16.89617	119.70890	182.60867	62.58264	77.02669	218.68083	-113.61299	32.73439	281.65729	-164.07097	51.53617	210.96416	-130.37204	35.89026	167.88023	-132.66377	982.38257	120.93694	-312.72299	969.41998	55.28984	-291.01782	760.78479	-31.32236	-326.07181	708.79761	-28.39917	-356.34119	797.52948	-16.39491	-381.67743	740.15704	-15.86828	-458.48987	479.16129	19.69369	-475.56497	495.25156	129.53674	-429.72083	392.97156	4.72455	-446.30688	347.78860	3.50338	-489.20563	405.27316	7.96392	-497.42950	359.36761	6.28551	-554.63507	111.04374	40.77600	-559.55823	141.41075	117.33888	-502.43808	66.59363	91.65662	-707.20251	104.35786	117.66819	-718.49445	125.93470	66.85399	-679.55457	84.91663	7.04164
